<svg xmlns="http://www.w3.org/2000/svg" xmlns:xlink="http://www.w3.org/1999/xlink" viewBox="0 0 174.57 181.56"><defs><style>.cls-1{fill:url(#linear-gradient);}.cls-2{fill:url(#New_Gradient_Swatch_3);}.cls-3{fill:url(#linear-gradient-2);}.cls-4{fill:url(#New_Gradient_Swatch_3-2);}.cls-5{fill:url(#linear-gradient-3);}.cls-6{fill:#3f3f3f;}.cls-7{fill:url(#linear-gradient-4);}</style><linearGradient id="linear-gradient" x1="45.6" x2="33.37" y1="47.28" y2="47.28" gradientUnits="userSpaceOnUse"><stop offset="0" stop-color="#d9d9d9"/><stop offset="1" stop-color="#fff"/></linearGradient><linearGradient id="New_Gradient_Swatch_3" x1="6.66" x2="43.99" y1="90.31" y2="70.31" gradientUnits="userSpaceOnUse"><stop offset="0" stop-color="#00bee1"/><stop offset="1" stop-color="#ff30a3"/></linearGradient><linearGradient id="linear-gradient-2" x1="112.51" x2="107.17" y1="111.73" y2="82.73" xlink:href="#linear-gradient"/><linearGradient id="New_Gradient_Swatch_3-2" x1="7.45" x2="79.12" y1="140.13" y2="101.8" xlink:href="#New_Gradient_Swatch_3"/><linearGradient id="linear-gradient-3" x1="27.6" x2="33.62" y1="53.06" y2="53.06" gradientTransform="translate(87.14 10.87) rotate(84.9)" xlink:href="#linear-gradient"/><linearGradient id="linear-gradient-4" x1="85.73" x2="56.06" y1="66.71" y2="50.04" gradientTransform="translate(108.78 116.34) rotate(-168.11)" xlink:href="#linear-gradient"/></defs><title>Asset 191</title><g id="Layer_2"><g id="Layer_1-2"><path d="M43.32 18.26V0C24.1 8.8 10 24 5.25 41.4c-3.2 11.74-3.74 29.95 12 50A8.08 8.08 0 1 0 30 81.5c-9.17-11.73-12.32-24.12-9.12-35.82 2.9-10.78 11.04-20.54 22.44-27.42z" class="cls-1"/><path d="M1.6 72.63L25.1 56.9a3.57 3.57 0 0 1 5 1l8.27 15.23A17.7 17.7 0 0 1 35.57 98a17.7 17.7 0 0 1-24.9-2.74L.6 77.58a3.57 3.57 0 0 1 1-4.95z" class="cls-2"/><path d="M53.77 118.9a8 8 0 0 1-1.56-15.84c.4-.08 38.6-7.7 112.67-23.76a8 8 0 1 1 3.4 15.64C94.04 111 55.7 118.68 55.33 118.76a8 8 0 0 1-1.57.15z" class="cls-3"/><path d="M72.6 119.1l-3.5-24.3a5.44 5.44 0 0 0-6.16-4.6h-.3C61.73 75.47 53.8 68 42.33 61.62c-47 16.94-53 80.94 1 119.93 0 0 0-17.8 0-39a33.73 33.73 0 0 1 3.6-14.83 17.7 17.7 0 0 0 4.4-.06l16.68-2.4a5.44 5.44 0 0 0 4.6-6.17z" class="cls-4"/><circle cx="37.63" cy="53.06" r="5.59" class="cls-5" transform="translate(-18.57 85.83) rotate(-84.9)"/><path d="M78.47 40.46l-9.92-10.3 12.62-3.32a45.43 45.43 0 0 1 .2 15.94z" class="cls-6"/><rect width="44.93" height="55.83" x="37.98" y="24.59" class="cls-7" rx="22.47" ry="22.47" transform="translate(130.41 91.44) rotate(168.11)"/><path d="M39.93 38.7a37.63 37.63 0 0 0 19-.63c10.77-3 2-5.06 2-5.06s24.45-.45 30.75-9.54-7.4-4.6-7.4-4.6 3-7.9-1.77-6.6a47.25 47.25 0 0 0-8.3 3.14s-28.7-9.82-38.4 6.3c-11 18.35 1.28 28 1.28 28zM40.34 19.88s-2.86-10.46-4.72-8.75-1.38 7.7-1.38 7.7-8.94 1.9-7.3 3.48c2.7 2.6 8.3 4.7 8.3 4.7" class="cls-6"/></g></g></svg>